<?xml version="1.0" encoding="iso-8859-1"?>
<!-- Generator: Adobe Illustrator 19.0.0, SVG Export Plug-In . SVG Version: 6.00 Build 0)  -->
<svg xmlns="http://www.w3.org/2000/svg" xmlns:xlink="http://www.w3.org/1999/xlink" version="1.1" id="Layer_1" x="0px" y="0px" viewBox="0 0 512 512" style="enable-background:new 0 0 512 512;" xml:space="preserve" width="512" height="512">
<g>
	<circle style="fill:#61729B;" cx="256" cy="256" r="256"/>
	<path style="fill:#47568C;" d="M511.11,277.312L373.591,139.793L143.008,370.376l27.744,27.744l-46.421,13.678l97.995,97.995   C233.347,511.242,244.584,512,256,512C390.207,512,500.278,408.723,511.11,277.312z"/>
	<g>
		<path style="fill:#FFB64C;" d="M206.701,287.912l-50.025-50.026l-73.52,72.642l60.557,60.557h79.595l33.62-32.945L206.701,287.912    z"/>
		<polygon style="fill:#FF9100;" points="256.929,338.14 223.308,371.086 143.713,371.086 133.384,360.756 192.523,302.292     206.701,287.912   "/>
		<polygon style="fill:#00C8C8;" points="385.781,151.923 266.981,230.217 213.926,323.779 256.889,366.744 428.746,194.887   "/>
		<polygon style="fill:#64E1DC;" points="299.858,66 128.002,237.847 170.968,280.817 272.131,220.157 342.817,108.959   "/>
		<polygon style="fill:#E0F4FF;" points="385.741,152.012 213.992,323.76 171.055,280.823 342.803,108.873 364.272,130.341   "/>
		<g>
			<rect x="124.338" y="391.542" style="fill:#FFB64C;" width="263.293" height="20.253"/>
		</g>
		<polygon style="fill:#BBDCFF;" points="385.741,152.012 213.992,323.76 192.523,302.292 364.272,130.341   "/>
	</g>
</g>















</svg>
