<svg height="512pt" viewBox="-6 0 512 512" width="512pt" xmlns="http://www.w3.org/2000/svg"><path d="m37.757812 397.242188h52.964844v105.929687c0 4.875-3.953125 8.828125-8.828125 8.828125h-35.3125c-4.875 0-8.824219-3.953125-8.824219-8.828125zm0 0" fill="#7f5b53"/><path d="m408.515625 397.242188h52.964844v105.929687c0 4.875-3.953125 8.828125-8.828125 8.828125h-35.308594c-4.875 0-8.828125-3.953125-8.828125-8.828125zm0 0" fill="#7f5b53"/><path d="m498.070312 322.242188-71.898437-125.828126-1.238281-2.207031h1.238281l58.128906-182.703125c.855469-2.683594.378907-5.613281-1.285156-7.886718-1.660156-2.273438-4.308594-3.617188-7.125-3.617188h-452.542969c-2.816406 0-5.464844 1.34375-7.128906 3.617188-1.660156 2.273437-2.136719 5.203124-1.285156 7.886718l58.132812 182.703125h1.234375l-73.136719 128.035157c-1.5625 2.730468-1.550781 6.089843.027344 8.808593 1.582032 2.722657 4.488282 4.398438 7.636719 4.398438h11.273437v52.964843c0 9.75 7.902344 17.65625 17.65625 17.65625h423.722657c9.75 0 17.65625-7.90625 17.65625-17.65625v-52.964843h11.269531c3.148438 0 6.054688-1.675781 7.636719-4.398438 1.578125-2.722656 1.589843-6.078125.027343-8.808593zm0 0" fill="#af8066"/><path d="m81.894531 194.207031v79.449219l-35.3125 61.792969h-37.753906c-3.148437 0-6.054687-1.675781-7.636719-4.398438-1.578125-2.71875-1.589844-6.078125-.027344-8.808593l73.136719-128.035157zm0 0" fill="#59474e"/><path d="m490.40625 335.449219h-28.925781l-35.308594-61.792969v-77.242188l71.898437 125.828126c1.5625 2.730468 1.550782 6.089843-.027343 8.808593-1.582031 2.722657-4.488281 4.398438-7.636719 4.398438zm0 0" fill="#59474e"/><path d="m174.582031 194.207031h251.589844l58.128906-182.703125c.855469-2.683594.378907-5.613281-1.285156-7.886718-1.660156-2.273438-4.308594-3.617188-7.125-3.617188h-452.542969c-2.816406 0-5.464844 1.34375-7.128906 3.617188-1.660156 2.273437-2.136719 5.203124-1.285156 7.886718l58.132812 182.703125zm0 0" fill="#af8066"/><path d="m20.101562 335.449219h459.035157v52.964843c0 9.75-7.90625 17.65625-17.65625 17.65625h-423.722657c-9.753906 0-17.65625-7.90625-17.65625-17.65625zm0 0" fill="#cb9080"/><path d="m461.480469 335.449219h-414.898438l35.3125-61.792969h344.277344zm0 0" fill="#af8066"/><path d="m426.171875 196.414062v77.242188h-344.277344v-79.449219h343.039063zm0 0" fill="#7f5b53"/><path d="m187.824219 220.691406h-35.308594l17.65625-35.3125zm0 0" fill="#fac176"/><path d="m152.515625 220.691406h35.308594v35.308594h-35.308594zm0 0" fill="#e64c3c"/><path d="m200.550781 256h-60.761719c-1.253906 0-2.449218.535156-3.285156 1.46875-.839844.9375-1.238281 2.183594-1.097656 3.433594l8.28125 74.546875h52.964844l8.285156-74.546875c.136719-1.25-.261719-2.496094-1.101562-3.433594-.835938-.933594-2.03125-1.46875-3.285157-1.46875zm0 0" fill="#f0c419"/></svg>