<svg height="512pt" viewBox="-28 0 512 512" width="512pt" xmlns="http://www.w3.org/2000/svg"><path d="m274.570312 7.5h-267.070312v497h360v-404.070312zm0 0" fill="#dcf0fb"/><path d="m7.5 7.5h30v497h-30zm0 0" fill="#96d1f3"/><path d="m274.570312 100.429688h92.929688l-92.929688-92.929688zm0 0" fill="#96d1f3"/><path d="m274.570312 7.5v92.929688h30v-62.929688zm0 0" fill="#3ca6e6"/><path d="m207.5 45h-15v-15h15zm-25 0h-15v-15h15zm0 0" fill="#fff"/><path d="m444.394531 460.753906-39.324219-39.324218 39.324219-39.324219-37.570312-37.574219-39.324219 39.328125-39.324219-39.328125-37.574219 37.574219 39.328126 39.324219-39.328126 39.324218 37.574219 37.570313 39.324219-39.324219 39.324219 39.324219zm0 0" fill="#d15573"/><path d="m320.601562 460.753906 39.328126-39.324218-39.324219-39.324219 22.570312-22.574219-15-15-37.570312 37.574219 39.324219 39.324219-39.328126 39.324218 37.574219 37.570313 15-15zm0 0" fill="#c21d44"/><path d="m342.5 92.929688h-60.429688v-60.429688h-15v75.429688h75.429688zm0 0"/><path d="m67.5 119.785156h140v15h-140zm0 0"/><path d="m97.5 179.785156h210v15h-210zm0 0"/><path d="m67.5 214.785156h240v15h-240zm0 0"/><path d="m67.5 249.785156h210v15h-210zm0 0"/><path d="m97.5 284.785156h210v15h-210zm0 0"/><path d="m67.5 319.785156h240v15h-240zm0 0"/><path d="m67.5 354.785156h210v15h-210zm0 0"/><path d="m455.003906 382.105469-48.179687-48.179688-39.324219 39.324219-39.324219-39.324219-48.179687 48.179688 39.324218 39.324219-39.324218 39.324218 36.246094 36.246094h-301.242188v-482h256.464844l88.535156 88.535156v247.320313h15v-253.535157l-97.324219-97.320312h-277.675781v512h375v-20h-15v5h-19.890625l27.390625-27.390625 39.324219 39.324219 48.179687-48.179688-39.324218-39.324218zm-21.214844 78.648437-26.964843 26.964844-39.324219-39.324219-39.324219 39.324219-26.964843-26.964844 39.324218-39.324218-39.324218-39.324219 26.964843-26.964844 39.324219 39.324219 39.324219-39.324219 26.964843 26.964844-39.324218 39.324219zm0 0"/></svg>