<svg height="512pt" viewBox="0 -78 512 512" width="512pt" xmlns="http://www.w3.org/2000/svg"><path d="m512 126.015625h-512l28.269531-45.691406-28.269531-45.6875h512l-28.269531 45.6875zm0 0" fill="#fd5d99"/><path d="m483.730469 80.324219 28.269531-45.6875h-169.851562l-91.378907 91.378906h261.230469zm0 0" fill="#e2407a"/><path d="m198.808594 239.460938c2.582031-2.097657 4.863281-4.46875 6.816406-7.058594 43.886719-9.085938 88.390625-32.480469 90.359375-33.519532l85.394531-45.222656-174.550781 31.753906c-.667969-.988281-1.378906-1.960937-2.144531-2.898437-2.566406-3.15625-5.511719-5.820313-8.722656-7.988281l31.75-174.527344-45.21875 85.390625c-1.039063 1.964844-24.410157 46.425781-33.507813 90.289063-.417969.3125-.835937.628906-1.246094.960937-8.390625 6.820313-13.621093 16.5-14.730469 27.257813-.007812.046874-.007812.097656-.015624.148437l-25.90625 5.785156c.011718-.269531.035156-.539062.042968-.808593.261719-10.8125-3.703125-21.078126-11.160156-28.90625-7.460938-7.828126-17.523438-12.285157-28.332031-12.546876-22.300781-.5625-40.910157 17.175782-41.449219 39.492188-.261719 10.808594 3.699219 21.074219 11.160156 28.902344 7.457032 7.832031 17.519532 12.285156 28.328125 12.546875.335938.007812.664063.011719.996094.011719 3.4375 0 6.78125-.433594 9.980469-1.25l64.628906-14.433594c.195312.25.382812.503906.582031.75 2.703125 3.320312 5.859375 6.140625 9.347657 8.414062l-14.472657 64.777344h.003907c-.765626 3.304688-1.125 6.722656-1.042969 10.199219.265625 10.808593 4.71875 20.871093 12.546875 28.328125 7.589844 7.226562 17.460937 11.171875 27.898437 11.171875.335938 0 .671875-.003907 1.007813-.011719 22.316406-.539062 40.03125-19.136719 39.488281-41.453125-.53125-21.980469-18.585937-39.5-40.457031-39.5-.328125 0-.660156.003906-.992188.011719-.28125.007812-.558594.03125-.839844.042968l6.183594-27.679687c6.636719-1.199219 12.898438-4.058594 18.273438-8.429687zm-15.011719-30.324219c-.292969 2.808593-1.660156 5.339843-3.851563 7.121093-2.191406 1.78125-4.949218 2.601563-7.757812 2.3125-2.808594-.289062-5.335938-1.65625-7.121094-3.847656-3.679687-4.527344-2.988281-11.199218 1.535156-14.878906 1.957032-1.589844 4.316407-2.363281 6.664063-2.363281 3.074219 0 6.128906 1.332031 8.214844 3.898437 1.78125 2.191406 2.605469 4.945313 2.316406 7.757813zm-117.398437 9.476562c-2.824219-.066406-5.453126-1.230469-7.398438-3.277343-1.949219-2.046876-2.984375-4.726563-2.917969-7.550782.140625-5.742187 4.855469-10.320312 10.570313-10.320312.085937 0 .171875 0 .261718.003906 2.824219.066406 5.453126 1.230469 7.398438 3.277344 1.949219 2.042968 2.984375 4.726562 2.917969 7.550781-.121094 5.046875-3.777344 9.167969-8.542969 10.109375l-.167969.039062c-.6875.125-1.398437.183594-2.121093.167969zm109.515624 86.8125c.085938-.003906.171876-.003906.257813-.003906 5.714844 0 10.429687 4.574219 10.570313 10.320313.140624 5.828124-4.484376 10.6875-10.316407 10.828124-2.828125.074219-5.507812-.964843-7.550781-2.914062-2.046875-1.949219-3.210938-4.578125-3.277344-7.402344-.070312-2.824218.964844-5.507812 2.914063-7.550781 1.949219-2.046875 4.578125-3.210937 7.402343-3.277344zm0 0" fill="#edbe2b"/><path d="m204.6875 182.515625c-.78125-.960937-1.609375-1.859375-2.457031-2.730469l-21.152344 21.152344c.132813.148438.277344.285156.402344.441406 1.78125 2.191406 2.605469 4.945313 2.316406 7.757813-.292969 2.808593-1.660156 5.339843-3.851563 7.121093-2.191406 1.78125-4.949218 2.601563-7.757812 2.3125-2.28125-.234374-4.367188-1.1875-6.03125-2.710937l-21.140625 21.140625c1.917969 1.871094 3.976563 3.558594 6.191406 5l-14.46875 64.78125c-.765625 3.300781-1.121093 6.71875-1.039062 10.195312.261719 10.8125 4.71875 20.871094 12.546875 28.332032 7.585937 7.226562 17.457031 11.171875 27.898437 11.171875.335938 0 .671875-.003907 1.007813-.015625 22.316406-.539063 40.03125-19.136719 39.488281-41.449219-.53125-21.984375-18.585937-39.5-40.457031-39.5-.332032 0-.660156.003906-.996094.011719-.277344.007812-.554688.027344-.835938.039062l6.183594-27.675781c6.632813-1.203125 12.898438-4.058594 18.273438-8.429687 2.582031-2.097657 4.863281-4.46875 6.816406-7.058594 43.886719-9.082032 88.390625-32.480469 90.359375-33.519532l85.394531-45.222656-174.550781 31.753906c-.667969-.988281-1.378906-1.960937-2.140625-2.898437zm-28.773438 122.910156c.085938-.003906.171876-.003906.257813-.003906 5.714844 0 10.429687 4.574219 10.570313 10.320313.140624 5.828124-4.484376 10.6875-10.316407 10.828124-2.828125.074219-5.507812-.964843-7.550781-2.914062-2.046875-1.949219-3.210938-4.578125-3.277344-7.402344-.070312-2.824218.964844-5.507812 2.914063-7.550781 1.949219-2.046875 4.578125-3.210937 7.402343-3.277344zm0 0" fill="#e89b25"/></svg>