<svg height="512pt" viewBox="0 -34 512 511" width="512pt" xmlns="http://www.w3.org/2000/svg"><path d="m457.671875 188.464844h-79.308594c-30.003906 0-54.328125-24.324219-54.328125-54.328125v-79.308594c0-30.003906 24.324219-54.328125 54.328125-54.328125h79.308594c30.003906 0 54.328125 24.324219 54.328125 54.328125v79.308594c0 30.003906-24.324219 54.328125-54.328125 54.328125zm0 0" fill="#ff8a98"/><path d="m374.171875 134.136719v-79.308594c0-30.003906 24.320313-54.328125 54.324219-54.328125h-50.132813c-30.003906 0-54.328125 24.324219-54.328125 54.328125v79.308594c0 30.003906 24.324219 54.328125 54.328125 54.328125h50.132813c-30.003906 0-54.324219-24.324219-54.324219-54.328125zm0 0" fill="#fd5c6f"/><path d="m457.671875 442.554688h-79.308594c-30.003906 0-54.328125-24.324219-54.328125-54.328126v-79.3125c0-30.003906 24.324219-54.324218 54.328125-54.324218h79.308594c30.003906 0 54.328125 24.320312 54.328125 54.324218v79.3125c0 30.003907-24.324219 54.328126-54.328125 54.328126zm0 0" fill="#60daa8"/><path d="m374.171875 388.226562v-79.3125c0-30.003906 24.320313-54.324218 54.324219-54.324218h-50.132813c-30.003906 0-54.328125 24.320312-54.328125 54.324218v79.3125c0 30.003907 24.324219 54.328126 54.328125 54.328126h50.132813c-30.003906 0-54.324219-24.324219-54.324219-54.328126zm0 0" fill="#00c172"/><path d="m373.507812 138.992188c3.753907 3.75 16.09375 9.492187 27.167969 0l17.34375-17.34375 17.339844 17.34375c11.242187 11.238281 23.414063 3.75 27.167969 0 7.5-7.503907 7.5-19.667969 0-27.167969l-17.34375-17.34375 17.34375-17.339844c7.5-7.5 7.5-19.664063 0-27.167969-7.503906-7.5-19.667969-7.5-27.167969 0l-17.339844 17.34375-17.34375-17.34375c-7.5-7.5-19.664062-7.5-27.167969 0-7.5 7.503906-7.5 19.667969 0 27.167969l17.34375 17.339844-17.34375 17.34375c-7.5 7.5-7.5 19.664062 0 27.167969zm0 0" fill="#fffcdc"/><path d="m473.550781 319.589844c-7.273437-7.722656-19.433593-8.082032-27.152343-.808594l-37.34375 35.179688-19.039063-18.9375c-7.523437-7.480469-19.6875-7.445313-27.167969.074218-7.484375 7.523438-7.449218 19.6875.074219 27.167969l32.222656 32.050781c3.742188 3.71875 8.640625 5.589844 13.550781 5.589844 4.730469 0 9.464844-1.738281 13.167969-5.230469l50.878907-47.929687c7.722656-7.273438 8.085937-19.433594.808593-27.15625zm0 0" fill="#fffcdc"/><path d="m141.382812 139.734375-58.265624 9.289063c-20.746094 3.308593-36.742188 20.425781-38.058594 41.394531-1.277344 20.3125 5.398437 45.980469 36.082031 69.140625-.261719-2.03125 60.242187-119.824219 60.242187-119.824219zm0 0" fill="#ffcbbe"/><path d="m319.589844 211.566406c-9.863282-9.863281-25.855469-9.863281-35.71875 0 9.863281-9.863281 9.863281-25.855468 0-35.71875-9.863282-9.863281-25.855469-9.863281-35.722656 0 9.867187-9.863281 9.867187-25.855468 0-35.71875-9.863282-9.863281-25.855469-9.863281-35.71875 0l62.65625-62.65625c9.863281-9.863281 9.863281-25.855468 0-35.722656-9.863282-9.863281-25.855469-9.863281-35.71875 0l-158.207032 158.210938c-26.714844 26.710937-26.714844 70.019531 0 96.734374l46.144532 46.144532c26.710937 26.710937 70.019531 26.710937 96.734374 0l95.550782-95.550782c9.863281-9.863281 9.863281-25.859374 0-35.722656zm0 0" fill="#ffddcf"/><path d="m96.753906 420.878906-86.554687-86.554687c-13.597657-13.597657-13.597657-35.648438 0-49.246094l10.3125-10.3125c13.597656-13.597656 35.644531-13.597656 49.242187 0l86.554688 86.554687c13.601562 13.601563 13.601562 35.648438 0 49.246094l-10.308594 10.3125c-13.601562 13.597656-35.648438 13.597656-49.246094 0zm0 0" fill="#60daa8"/><path d="m47.800781 371.925781c-13.597656-13.597656-13.597656-35.648437 0-49.246093l10.3125-10.3125c13.597657-13.597657 35.644531-13.597657 49.242188 0l-37.601563-37.601563c-13.597656-13.597656-35.644531-13.597656-49.242187 0l-10.3125 10.3125c-13.597657 13.597656-13.597657 35.648437 0 49.246094zm0 0" fill="#00ce8e"/><path d="m134.410156 383.871094c0 8.34375-6.765625 15.105468-15.109375 15.105468s-15.109375-6.761718-15.109375-15.105468c0-8.347656 6.765625-15.109375 15.109375-15.109375s15.109375 6.761719 15.109375 15.109375zm0 0" fill="#f9ee80"/></svg>