<?xml version="1.0" encoding="iso-8859-1"?>
<!-- Generator: Adobe Illustrator 19.0.0, SVG Export Plug-In . SVG Version: 6.00 Build 0)  -->
<svg xmlns="http://www.w3.org/2000/svg" xmlns:xlink="http://www.w3.org/1999/xlink" version="1.1" id="Layer_1" x="0px" y="0px" viewBox="0 0 512 512" style="enable-background:new 0 0 512 512;" xml:space="preserve" width="512" height="512">
<g>
	<g>
		<g>
			<g>
				<g>
					<g>
						<g>
							<g>
								<g>
									<g>
										<g>
											<g>
												<path style="fill:#F2F2F2;" d="M495.364,441.781H86.812c-9.176,0-16.614-7.439-16.614-16.614V16.615              C70.198,7.439,77.636,0,86.812,0h408.552c9.176,0,16.614,7.439,16.614,16.614v408.552              C511.978,434.342,504.54,441.781,495.364,441.781z"/>
												<path style="fill:#CDD6DF;" d="M495.364,0h-47.747c9.176,0,16.614,7.439,16.614,16.615v408.552              c0,9.176-7.439,16.614-16.614,16.614h47.747c9.176,0,16.614-7.439,16.614-16.614V16.615              C511.978,7.439,504.54,0,495.364,0z"/>
												<path style="fill:#426175;" d="M495.364,0H86.812c-9.176,0-16.614,7.438-16.614,16.614v49.538h441.781V16.615              C511.978,7.439,504.54,0,495.364,0z"/>
												<path style="fill:#2C4456;" d="M511.978,66.152V16.615C511.978,7.439,504.54,0,495.364,0H447.62              c9.174,0.002,16.611,7.44,16.611,16.614v49.538H511.978z"/>
											</g>
										</g>
									</g>
								</g>
								<g>
									<g>
										<path style="fill:#F2F2F2;" d="M271.099,40.803H108.741c-4.267,0-7.726-3.459-7.726-7.726s3.459-7.726,7.726-7.726            h162.358c4.267,0,7.726,3.459,7.726,7.726S275.366,40.803,271.099,40.803z"/>
									</g>
									<g>
										<circle style="fill:#46D1C0;" cx="392.881" cy="33.076" r="8.363"/>
										<circle style="fill:#46D1C0;" cx="432.975" cy="33.076" r="8.363"/>
										<circle style="fill:#46D1C0;" cx="473.068" cy="33.076" r="8.363"/>
									</g>
								</g>
							</g>
						</g>
					</g>
				</g>
			</g>
		</g>
		<path style="fill:#FED066;" d="M319.611,276.435c-1.378,0-2.72-0.418-3.881-1.212l-24.642-16.831l-24.642,16.831    c-1.16,0.793-2.502,1.212-3.88,1.212c-2.162,0-4.234-1.042-5.542-2.788c-1.303-1.74-1.696-3.946-1.078-6.052l8.393-28.637    l-23.623-18.235c-2.335-1.804-3.255-4.781-2.343-7.586c0.912-2.806,3.406-4.673,6.355-4.758l29.828-0.867l10.042-28.101    c0.993-2.778,3.54-4.573,6.49-4.573s5.497,1.795,6.49,4.572l10.042,28.102l29.829,0.867c2.948,0.086,5.442,1.953,6.354,4.758    c0.912,2.805-0.008,5.782-2.342,7.586l-23.624,18.235l8.393,28.637c0.618,2.105,0.224,4.312-1.078,6.051    C323.844,275.392,321.773,276.435,319.611,276.435z"/>
		<path style="fill:#FED066;" d="M190.252,276.435c-1.378,0-2.72-0.418-3.881-1.212l-24.641-16.831l-24.642,16.831    c-1.16,0.793-2.502,1.212-3.88,1.212c-2.162,0-4.234-1.042-5.542-2.788c-1.303-1.74-1.696-3.946-1.078-6.052l8.394-28.637    l-23.623-18.235c-2.335-1.803-3.255-4.78-2.343-7.586c0.912-2.806,3.406-4.673,6.355-4.758l29.828-0.867l10.042-28.101    c0.993-2.778,3.54-4.573,6.49-4.573c2.949,0,5.497,1.795,6.489,4.572l10.042,28.102l29.829,0.867    c2.948,0.086,5.443,1.954,6.354,4.758c0.912,2.806-0.008,5.783-2.343,7.586l-23.623,18.235l8.394,28.637    c0.617,2.106,0.224,4.312-1.079,6.052C194.486,275.392,192.414,276.435,190.252,276.435z"/>
		<path style="fill:#FED066;" d="M453.134,276.435c-1.378,0-2.72-0.418-3.881-1.212l-24.642-16.831l-24.642,16.831    c-1.16,0.793-2.502,1.212-3.88,1.212c-2.162,0-4.234-1.042-5.542-2.788c-1.303-1.74-1.696-3.946-1.078-6.052l8.394-28.637    l-23.623-18.235c-2.335-1.803-3.255-4.78-2.343-7.586c0.912-2.806,3.406-4.673,6.355-4.758l29.828-0.867l10.042-28.101    c0.993-2.778,3.54-4.573,6.49-4.573c2.949,0,5.497,1.795,6.489,4.572l10.042,28.102l29.829,0.867    c2.948,0.086,5.443,1.954,6.354,4.758c0.912,2.806-0.008,5.783-2.343,7.586l-23.623,18.235l8.394,28.637    c0.618,2.105,0.224,4.312-1.078,6.051C457.368,275.392,455.297,276.435,453.134,276.435z"/>
		<g>
			<g>
				<g>
					<path style="fill:#FFE8C2;" d="M223.136,361.129l-6.053-5.582c-5.228-4.822-13.375-4.492-18.197,0.736l-1.575,1.708l0,0       l7.171-7.775c4.822-5.228,4.492-13.375-0.736-18.197l-6.053-5.582c-5.228-4.822-13.375-4.492-18.196,0.736l4.447-4.821       c4.822-5.228,4.492-13.375-0.736-18.197l-6.053-5.582c-5.228-4.822-13.375-4.492-18.197,0.736l-1.842,1.997l0,0l53.082-57.558       c6.363-6.9,5.928-17.651-0.971-24.014l0,0c-6.9-6.363-17.651-5.928-24.014,0.971l-67.057,72.711l0,0l-33.274,36.08       l-5.201-44.014c-1.206-10.204-11.264-16.901-21.144-14.076h0c-7.128,2.038-12.055,8.537-12.092,15.951l-0.493,99.107       c0.747,2.824,0,5.834-1.981,7.982l-14.766,16.011l76.115,70.197l16.979-18.411c0.636-0.69,1.382-1.27,2.207-1.718       l30.936-16.791c11.977-6.501,22.802-14.929,32.04-24.947l8.195-8.886l0,0l28.197-30.574       C228.693,374.097,228.364,365.95,223.136,361.129z"/>
					<g>
						<path style="fill:#EFD5AF;" d="M223.136,361.129l-6.053-5.582c-5.228-4.822-13.375-4.492-18.197,0.736l-1.575,1.708        l7.171-7.775c4.822-5.228,4.492-13.375-0.736-18.197l-5.941-5.479l-41.015,44.473l-8.195,8.886        c-9.239,10.018-20.064,18.446-32.041,24.947l-32.182,17.467l-19.447,21.087l40.393,37.252l16.979-18.411        c0.636-0.69,1.382-1.27,2.207-1.718l30.936-16.791c11.977-6.501,22.802-14.929,32.041-24.947l8.195-8.886l28.196-30.574        C228.694,374.097,228.364,365.95,223.136,361.129z"/>
					</g>
					<path style="fill:#FD715C;" d="M109.832,493.422l-14.645,15.88c-3.137,3.401-8.437,3.616-11.838,0.479L2.72,435.421       c-3.418-3.152-3.615-8.485-0.439-11.881l14.755-15.779c3.145-3.363,8.414-3.558,11.799-0.436l80.519,74.258       C112.755,484.72,112.969,490.021,109.832,493.422z"/>
				</g>
			</g>
		</g>
	</g>
</g>















</svg>
