<?xml version="1.0" encoding="iso-8859-1"?>
<!-- Generator: Adobe Illustrator 21.0.0, SVG Export Plug-In . SVG Version: 6.00 Build 0)  -->
<svg xmlns="http://www.w3.org/2000/svg" xmlns:xlink="http://www.w3.org/1999/xlink" version="1.1" id="Capa_1" x="0px" y="0px" viewBox="0 0 512 512" style="enable-background:new 0 0 512 512;" xml:space="preserve" width="512" height="512">
<g>
	<g>
		<path style="fill:#326ED3;" d="M512,474.911H0V37.089h512V474.911z"/>
		<rect x="37.344" y="77.738" style="fill:#FC5755;" width="30.002" height="30"/>
		<rect x="87.347" y="77.738" style="fill:#F3C86A;" width="30.002" height="30"/>
		<rect x="137.35" y="77.738" style="fill:#9FFCFE;" width="30.002" height="30"/>
		<rect x="37.344" y="77.738" style="fill:#FC5755;" width="30.002" height="30"/>
		<rect x="87.347" y="77.738" style="fill:#F3C86A;" width="30.002" height="30"/>
		<rect x="137.35" y="77.738" style="fill:#9CC0FA;" width="30.002" height="30"/>
		<g>
			<rect x="256" y="37.089" style="fill:#0841A3;" width="256" height="437.822"/>
		</g>
		<path style="fill:#EDF5FF;" d="M512,474.911H0V147.096h512V474.911z"/>
		<g>
			<rect x="256" y="147.096" style="fill:#D7E9FF;" width="256" height="327.815"/>
		</g>
		<rect x="237.981" y="77.738" style="fill:#9CC0FA;" width="236.021" height="30"/>
		<rect x="256" y="77.738" style="fill:#6598EA;" width="218.002" height="30"/>
	</g>
	<g>
		<path style="fill:#F3C86A;" d="M171.77,308.217H62.173V198.22H171.77V308.217z"/>
	</g>
	<g>
		<path style="fill:#F3C86A;" d="M310.798,428.027H201.202V318.03h109.596V428.027z"/>
	</g>
	<g>
		<path style="fill:#F07F22;" d="M310.798,428.027H256V318.03h54.798V428.027z"/>
	</g>
	<g>
		<path style="fill:#F07F22;" d="M449.827,308.217H340.23V198.22h109.597V308.217z"/>
	</g>
	<g>
		<rect x="61" y="338.221" style="fill:#FC5755;" width="111" height="30"/>
	</g>
	<g>
		<rect x="61" y="398.224" style="fill:#FC5755;" width="111" height="30"/>
	</g>
	<g>
		<rect x="201" y="198.22" style="fill:#FC5755;" width="111" height="30"/>
	</g>
	<g>
		<rect x="201" y="258.224" style="fill:#FC5755;" width="111" height="30"/>
	</g>
	<g>
		<rect x="256" y="198.22" style="fill:#FC0E3C;" width="56" height="30"/>
	</g>
	<g>
		<rect x="256" y="258.224" style="fill:#FC0E3C;" width="56" height="30"/>
	</g>
	<g>
		<rect x="339.528" y="338.221" style="fill:#FC0E3C;" width="111" height="30"/>
	</g>
	<g>
		<rect x="339.528" y="398.224" style="fill:#FC0E3C;" width="111" height="30"/>
	</g>
</g>















</svg>
