<?xml version="1.0" encoding="iso-8859-1"?>
<!-- Generator: Adobe Illustrator 19.0.0, SVG Export Plug-In . SVG Version: 6.00 Build 0)  -->
<svg version="1.1" id="Capa_1" xmlns="http://www.w3.org/2000/svg" xmlns:xlink="http://www.w3.org/1999/xlink" x="0px" y="0px"
	 viewBox="0 0 512.001 512.001" style="enable-background:new 0 0 512.001 512.001;" xml:space="preserve">
<path style="fill:#F44545;" d="M154.307,41.015h203.388c50.78,0,92.328,41.548,92.328,92.328v286.331
	c0,50.78-41.548,92.328-92.328,92.328H154.307c-50.78,0-92.328-41.548-92.328-92.328V133.343
	C61.979,82.562,103.526,41.015,154.307,41.015z"/>
<path style="fill:#D2D2D7;" d="M417.018,149.069v230.938c0,14.4-3.838,27.952-10.531,39.672
	c-13.883,24.31-40.076,40.779-69.921,40.779H175.435c-44.245,0-80.452-36.197-80.452-80.452V149.069
	c0-32.235,19.21-60.197,46.748-73.004c10.272-4.779,21.693-7.448,33.703-7.448h161.131
	C380.811,68.617,417.018,104.824,417.018,149.069z"/>
<path style="fill:#EBEBF0;" d="M417.018,149.069v230.938c0,14.4-3.838,27.952-10.531,39.672
	c-10.262,4.779-21.683,7.448-33.703,7.448H211.652c-44.245,0-80.452-36.207-80.452-80.452V115.738
	c0-14.4,3.838-27.952,10.531-39.672c10.272-4.779,21.693-7.448,33.703-7.448h161.131
	C380.811,68.617,417.018,104.824,417.018,149.069z"/>
<path style="fill:#9C6A53;" d="M368.697,52.997V53.1c0,17.741-14.503,32.245-32.245,32.245H175.549
	c-8.866,0-16.934-3.621-22.779-9.466c-5.845-5.845-9.466-13.914-9.466-22.779c0-17.731,14.503-32.235,32.245-32.235h51.579
	c2.628,0,4.966-1.676,5.793-4.169C236.138,7.024,245.283,0,256.001,0c10.717,0,19.862,7.024,23.079,16.697
	c0.828,2.493,3.166,4.169,5.793,4.169h51.579c8.866,0,16.934,3.631,22.779,9.466C365.056,36.155,368.666,44.172,368.697,52.997z"/>
<path style="fill:#06638D;" d="M154.683,186.382c-0.048,0-0.095,0-0.143-0.001c-2.338-0.043-4.532-1.139-5.972-2.981l-14.545-18.621
	c-2.638-3.378-2.039-8.253,1.339-10.89c3.376-2.641,8.253-2.04,10.89,1.338l8.657,11.083l28.977-34.413
	c2.759-3.277,7.653-3.697,10.932-0.937c3.277,2.76,3.697,7.654,0.937,10.932l-35.137,41.729
	C159.142,185.372,156.969,186.382,154.683,186.382z"/>
<g>
	<path style="fill:#1B87B3;" d="M370.842,153.104H213.6c-4.285,0-7.759-3.473-7.759-7.759s3.474-7.759,7.759-7.759h157.241
		c4.285,0,7.759,3.473,7.759,7.759S375.126,153.104,370.842,153.104z"/>
	<path style="fill:#1B87B3;" d="M370.842,177.931H213.6c-4.285,0-7.759-3.473-7.759-7.759c0-4.286,3.474-7.759,7.759-7.759h157.241
		c4.285,0,7.759,3.473,7.759,7.759C378.6,174.458,375.126,177.931,370.842,177.931z"/>
</g>
<path style="fill:#06638D;" d="M154.683,259.83c-0.048,0-0.095,0-0.143-0.001c-2.338-0.043-4.532-1.139-5.972-2.981l-14.545-18.621
	c-2.638-3.378-2.039-8.253,1.339-10.89c3.376-2.64,8.253-2.04,10.89,1.338l8.657,11.083l28.977-34.413
	c2.759-3.277,7.653-3.697,10.932-0.937c3.277,2.76,3.697,7.654,0.937,10.932l-35.137,41.729
	C159.142,258.82,156.969,259.83,154.683,259.83z"/>
<g>
	<path style="fill:#1B87B3;" d="M370.842,226.552H213.6c-4.285,0-7.759-3.473-7.759-7.759s3.474-7.759,7.759-7.759h157.241
		c4.285,0,7.759,3.473,7.759,7.759S375.126,226.552,370.842,226.552z"/>
	<path style="fill:#1B87B3;" d="M370.842,251.379H213.6c-4.285,0-7.759-3.473-7.759-7.759s3.474-7.759,7.759-7.759h157.241
		c4.285,0,7.759,3.473,7.759,7.759S375.126,251.379,370.842,251.379z"/>
</g>
<path style="fill:#06638D;" d="M154.683,333.279c-0.048,0-0.095,0-0.143-0.001c-2.338-0.043-4.532-1.139-5.972-2.981l-14.545-18.621
	c-2.638-3.378-2.039-8.253,1.339-10.89c3.376-2.64,8.253-2.04,10.89,1.338l8.657,11.083l28.977-34.413
	c2.759-3.277,7.653-3.696,10.932-0.937c3.277,2.76,3.697,7.654,0.937,10.932l-35.137,41.729
	C159.142,332.269,156.969,333.279,154.683,333.279z"/>
<g>
	<path style="fill:#1B87B3;" d="M370.842,300H213.6c-4.285,0-7.759-3.473-7.759-7.759c0-4.286,3.474-7.759,7.759-7.759h157.241
		c4.285,0,7.759,3.473,7.759,7.759C378.6,296.527,375.126,300,370.842,300z"/>
	<path style="fill:#1B87B3;" d="M370.842,324.828H213.6c-4.285,0-7.759-3.473-7.759-7.759c0-4.286,3.474-7.759,7.759-7.759h157.241
		c4.285,0,7.759,3.473,7.759,7.759C378.6,321.355,375.126,324.828,370.842,324.828z"/>
</g>
<path style="fill:#06638D;" d="M154.683,406.727c-0.048,0-0.095,0-0.143-0.001c-2.338-0.043-4.532-1.139-5.972-2.981l-14.545-18.621
	c-2.638-3.378-2.039-8.253,1.339-10.89c3.376-2.64,8.253-2.04,10.89,1.338l8.657,11.083l28.977-34.413
	c2.759-3.277,7.653-3.697,10.932-0.937c3.277,2.76,3.697,7.654,0.937,10.932l-35.137,41.729
	C159.142,405.717,156.969,406.727,154.683,406.727z"/>
<g>
	<path style="fill:#1B87B3;" d="M370.842,373.449H213.6c-4.285,0-7.759-3.473-7.759-7.759c0-4.286,3.474-7.759,7.759-7.759h157.241
		c4.285,0,7.759,3.473,7.759,7.759C378.6,369.976,375.126,373.449,370.842,373.449z"/>
	<path style="fill:#1B87B3;" d="M370.842,398.276H213.6c-4.285,0-7.759-3.473-7.759-7.759c0-4.286,3.474-7.759,7.759-7.759h157.241
		c4.285,0,7.759,3.473,7.759,7.759C378.6,394.803,375.126,398.276,370.842,398.276z"/>
</g>
<path style="fill:#B98E7A;" d="M368.697,52.997c-18.869,4.79-40.707,7.521-63.983,7.521c-57.403,0-106.066-16.634-122.907-39.652
	h45.321c2.628,0,4.966-1.676,5.793-4.169C236.138,7.024,245.283,0,256.001,0c10.717,0,19.862,7.024,23.079,16.697
	c0.828,2.493,3.166,4.169,5.793,4.169h51.579c8.866,0,16.934,3.631,22.779,9.466C365.056,36.155,368.666,44.172,368.697,52.997z"/>
<g>
</g>
<g>
</g>
<g>
</g>
<g>
</g>
<g>
</g>
<g>
</g>
<g>
</g>
<g>
</g>
<g>
</g>
<g>
</g>
<g>
</g>
<g>
</g>
<g>
</g>
<g>
</g>
<g>
</g>
</svg>
