<?xml version="1.0" encoding="iso-8859-1"?>
<!-- Generator: Adobe Illustrator 19.0.0, SVG Export Plug-In . SVG Version: 6.00 Build 0)  -->
<svg version="1.1" id="Capa_1" xmlns="http://www.w3.org/2000/svg" xmlns:xlink="http://www.w3.org/1999/xlink" x="0px" y="0px"
	 viewBox="0 0 423.253 423.253" style="enable-background:new 0 0 423.253 423.253;" xml:space="preserve">
<rect x="6.827" y="88.747" style="fill:#FFFFFF;" width="409.6" height="218.453"/>
<path style="fill:#602F75;" d="M416.427,314.027H6.827C3.053,314.027,0,310.973,0,307.2V88.747c0-3.773,3.053-6.827,6.827-6.827
	h409.6c3.773,0,6.827,3.053,6.827,6.827V307.2C423.253,310.973,420.2,314.027,416.427,314.027z M13.653,300.373H409.6v-204.8H13.653
	V300.373z"/>
<path style="fill:#FFE600;" d="M293.547,54.613H20.064c-7.311,0-13.237,5.926-13.237,13.237v20.896h409.6V67.85
	c0-7.31-5.926-13.237-13.237-13.237h-68.681"/>
<path style="fill:#602F75;" d="M416.427,95.573H6.827C3.053,95.573,0,92.52,0,88.747v-20.9c0-11.061,8.999-20.06,20.06-20.06
	h273.487c3.773,0,6.827,3.053,6.827,6.827s-3.053,6.827-6.827,6.827H20.06c-3.533,0-6.407,2.874-6.407,6.407V81.92H409.6V67.847
	c0-3.533-2.874-6.407-6.407-6.407h-68.686c-3.773,0-6.827-3.053-6.827-6.827s3.053-6.827,6.827-6.827h68.686
	c11.061,0,20.06,8.999,20.06,20.06v20.9C423.253,92.52,420.2,95.573,416.427,95.573z"/>
<path style="fill:#FFE600;" d="M403.19,341.333H20.064c-7.31,0-13.237-5.926-13.237-13.237V307.2h409.6v20.896
	C416.427,335.408,410.501,341.333,403.19,341.333z"/>
<path style="fill:#602F75;" d="M403.193,348.16H20.06C8.999,348.16,0,339.161,0,328.1v-20.9c0-3.773,3.053-6.827,6.827-6.827h409.6
	c3.773,0,6.827,3.053,6.827,6.827v20.9C423.253,339.161,414.254,348.16,403.193,348.16z M13.653,314.027V328.1
	c0,3.533,2.874,6.407,6.407,6.407h383.133c3.533,0,6.407-2.874,6.407-6.407v-14.073H13.653z"/>
<rect x="163.84" y="341.333" style="fill:#EA3457;" width="95.573" height="27.307"/>
<g>
	<path style="fill:#602F75;" d="M259.413,375.467H163.84c-3.773,0-6.827-3.053-6.827-6.827v-27.307c0-3.773,3.053-6.827,6.827-6.827
		h95.573c3.773,0,6.827,3.053,6.827,6.827v27.307C266.24,372.413,263.187,375.467,259.413,375.467z M170.667,361.813h81.92V348.16
		h-81.92V361.813z"/>
	<path style="fill:#602F75;" d="M293.547,375.467h-163.84c-3.773,0-6.827-3.053-6.827-6.827s3.053-6.827,6.827-6.827h163.84
		c3.773,0,6.827,3.053,6.827,6.827S297.32,375.467,293.547,375.467z"/>
</g>
<g>
	<path style="fill:#00E7FF;" d="M27.307,136.533c-1.746,0-3.494-0.667-4.826-2c-2.666-2.666-2.666-6.987,0-9.653l20.48-20.48
		c2.666-2.666,6.987-2.666,9.653,0c2.666,2.666,2.666,6.987,0,9.653l-20.48,20.48C30.8,135.866,29.053,136.533,27.307,136.533z"/>
	<path style="fill:#00E7FF;" d="M30.72,160.427c-1.746,0-3.494-0.667-4.826-2c-2.666-2.666-2.666-6.987,0-9.653L70.267,104.4
		c2.666-2.666,6.987-2.666,9.653,0c2.666,2.666,2.666,6.987,0,9.653l-44.373,44.373C34.214,159.759,32.466,160.427,30.72,160.427z"
		/>
	<rect x="266.24" y="95.573" style="fill:#00E7FF;" width="75.093" height="204.8"/>
</g>
<g>
</g>
<g>
</g>
<g>
</g>
<g>
</g>
<g>
</g>
<g>
</g>
<g>
</g>
<g>
</g>
<g>
</g>
<g>
</g>
<g>
</g>
<g>
</g>
<g>
</g>
<g>
</g>
<g>
</g>
</svg>
