<svg height="464pt" viewBox="0 0 464 464" width="464pt" xmlns="http://www.w3.org/2000/svg"><path d="m440 232c0 114.875-93.125 208-208 208s-208-93.125-208-208 93.125-208 208-208 208 93.125 208 208zm0 0" fill="#ff6243"/><path d="m408 232c0 97.203125-78.796875 176-176 176s-176-78.796875-176-176 78.796875-176 176-176 176 78.796875 176 176zm0 0" fill="#ffde55"/><g fill="#e6e7e8"><path d="m216 64c0 8.835938 7.164062 16 16 16s16-7.164062 16-16v-48c0-8.835938-7.164062-16-16-16s-16 7.164062-16 16zm0 0"/><path d="m64 248c8.835938 0 16-7.164062 16-16s-7.164062-16-16-16h-48c-8.835938 0-16 7.164062-16 16s7.164062 16 16 16zm0 0"/><path d="m248 400c0-8.835938-7.164062-16-16-16s-16 7.164062-16 16v48c0 8.835938 7.164062 16 16 16s16-7.164062 16-16zm0 0"/><path d="m448 216h-48c-8.835938 0-16 7.164062-16 16s7.164062 16 16 16h48c8.835938 0 16-7.164062 16-16s-7.164062-16-16-16zm0 0"/></g><path d="m344 232c0 61.855469-50.144531 112-112 112s-112-50.144531-112-112 50.144531-112 112-112 112 50.144531 112 112zm0 0" fill="#ffb655"/><path d="m296 304v19.839844c-38.433594 26.882812-89.566406 26.882812-128 0v-19.839844c.011719-23.535156 17.085938-43.59375 40.320312-47.359375l23.679688 55.359375 23.679688-55.359375c23.234374 3.765625 40.308593 23.824219 40.320312 47.359375zm0 0" fill="#ffd422"/><path d="m216 256c-2.574219.007812-5.140625.222656-7.679688.640625l23.679688 55.359375 23.679688-55.359375c-2.539063-.417969-5.105469-.632813-7.679688-.640625zm0 0" fill="#ffdaaa"/><path d="m216 184-8 8h-8v16c0 17.671875 14.328125 32 32 32s32-14.328125 32-32v-16h-32zm0 0" fill="#ffdaaa"/><path d="m192 184v8h16l8-8 16 8h40v-8c0-17.671875-14.328125-32-32-32h-16c-17.671875 0-32 14.328125-32 32zm0 0" fill="#787680"/><path d="m232 312v32c-22.898438.03125-45.25-7.011719-64-20.160156v-19.839844c.011719-23.535156 17.085938-43.59375 40.320312-47.359375zm0 0" fill="#3d9ae2"/><path d="m296 304v19.839844c-18.75 13.148437-41.101562 20.191406-64 20.160156v-32l23.679688-55.359375c23.234374 3.765625 40.308593 23.824219 40.320312 47.359375zm0 0" fill="#5aaae7"/></svg>