<?xml version="1.0" encoding="iso-8859-1"?>
<!-- Generator: Adobe Illustrator 19.0.0, SVG Export Plug-In . SVG Version: 6.00 Build 0)  -->
<svg xmlns="http://www.w3.org/2000/svg" xmlns:xlink="http://www.w3.org/1999/xlink" version="1.1" id="Layer_1" x="0px" y="0px" viewBox="0 0 512 512" style="enable-background:new 0 0 512 512;" xml:space="preserve" width="512" height="512">
<g>
	<g>
		<g>
			<g>
				<path style="fill:#EDEDED;" d="M472.172,512H39.828c-11.494,0-20.812-9.318-20.812-20.812V58.844      c0-11.494,9.318-20.812,20.812-20.812h432.344c11.494,0,20.812,9.318,20.812,20.812v432.344      C492.984,502.682,483.666,512,472.172,512z"/>
				<path style="fill:#D6D6D6;" d="M472.172,38.032h-32.387V512h32.387c11.495,0,20.812-9.318,20.812-20.812V58.844      C492.984,47.35,483.666,38.032,472.172,38.032z"/>
				<path style="fill:#345863;" d="M472.172,38.032H39.828c-11.494,0-20.812,9.318-20.812,20.812v64.566h473.968V58.844      C492.984,47.35,483.666,38.032,472.172,38.032z"/>
				<path style="fill:#1E4751;" d="M492.984,123.41L492.984,123.41V58.844c0-11.494-9.318-20.812-20.812-20.812h-32.387v85.378      H492.984z"/>
			</g>
			<path style="fill:#F43B45;" d="M264.283,181.808l28.118,86.539c1.166,3.589,4.51,6.018,8.283,6.018h90.993     c8.437,0,11.945,10.797,5.119,15.756l-73.615,53.484c-3.053,2.218-4.33,6.149-3.164,9.738l28.118,86.539     c2.607,8.024-6.577,14.697-13.403,9.738l-73.615-53.484c-3.053-2.218-7.186-2.218-10.239,0l-73.615,53.484     c-6.826,4.959-16.01-1.713-13.403-9.738l28.118-86.539c1.166-3.589-0.111-7.52-3.164-9.738l-73.615-53.484     c-6.826-4.959-3.318-15.756,5.119-15.756h90.993c3.773,0,7.117-2.43,8.283-6.018l28.118-86.539     C250.324,173.784,261.676,173.784,264.283,181.808z"/>
		</g>
		<g>
			<path style="fill:#FF9C43;" d="M90.101,76.379L90.101,76.379c-12.071,0-21.856-9.785-21.856-21.856V21.856     C68.245,9.785,78.03,0,90.1,0h0c12.07,0,21.856,9.785,21.856,21.856v32.668C111.956,66.594,102.171,76.379,90.101,76.379z"/>
			<path style="fill:#FF9C43;" d="M200.7,76.379L200.7,76.379c-12.071,0-21.856-9.785-21.856-21.856V21.856     C178.845,9.785,188.63,0,200.7,0h0c12.07,0,21.856,9.785,21.856,21.856v32.668C222.556,66.594,212.771,76.379,200.7,76.379z"/>
			<path style="fill:#FF9C43;" d="M311.3,76.379L311.3,76.379c-12.071,0-21.856-9.785-21.856-21.856V21.856     C289.444,9.785,299.229,0,311.3,0h0c12.07,0,21.856,9.785,21.856,21.856v32.668C333.155,66.594,323.37,76.379,311.3,76.379z"/>
			<path style="fill:#FF9C43;" d="M421.9,76.379L421.9,76.379c-12.071,0-21.856-9.785-21.856-21.856V21.856     C400.044,9.785,409.829,0,421.899,0h0c12.07,0,21.856,9.785,21.856,21.856v32.668C443.755,66.594,433.97,76.379,421.9,76.379z"/>
		</g>
	</g>
</g>















</svg>
