<svg height="480pt" viewBox="0 0 480 480" width="480pt" xmlns="http://www.w3.org/2000/svg"><path d="m416 240c0 97.203125-78.796875 176-176 176s-176-78.796875-176-176 78.796875-176 176-176 176 78.796875 176 176zm0 0" fill="#ffc477"/><path d="m88 240c.023438-92.527344 71.6875-169.234375 164-175.542969-4-.273437-7.960938-.457031-12-.457031-97.203125 0-176 78.796875-176 176s78.796875 176 176 176c4.039062 0 8-.183594 12-.457031-92.3125-6.308594-163.976562-83.015625-164-175.542969zm0 0" fill="#ffb655"/><path d="m240 24c-119.292969 0-216 96.707031-216 216s96.707031 216 216 216 216-96.707031 216-216-96.707031-216-216-216zm0 392c-97.203125 0-176-78.796875-176-176s78.796875-176 176-176 176 78.796875 176 176-78.796875 176-176 176zm0 0" fill="#ffe477"/><path d="m244.558594 147.28125c-7.96875 21.820312-28.605469 36.441406-51.839844 36.71875 4.285156 24.472656 26.539062 41.632812 51.296875 39.554688 24.761719-2.078126 43.839844-22.710938 43.984375-47.554688.003906-2.683594-.234375-5.359375-.71875-8-16.617188-.191406-32.28125-7.789062-42.722656-20.71875zm0 0" fill="#ffdaaa"/><path d="m244.558594 147.28125c2.214844-5.941406 3.378906-12.222656 3.441406-18.5625-2.640625-.484375-5.316406-.722656-8-.71875-1.871094-.015625-3.742188.089844-5.601562.320312-24.15625 2.882813-42.359376 23.351563-42.398438 47.679688-.003906 2.683594.234375 5.359375.71875 8 23.234375-.277344 43.871094-14.898438 51.839844-36.71875zm0 0" fill="#ffd422"/><path d="m287.28125 168c-3.402344-20.117188-19.164062-35.878906-39.28125-39.28125-.0625 6.339844-1.226562 12.621094-3.441406 18.5625 10.441406 12.929688 26.105468 20.527344 42.722656 20.71875zm0 0" fill="#ffde55"/><path d="m264 336h88c0-45.886719-30.992188-84.199219-85.152344-93.6875l-10.847656 21.6875zm0 0" fill="#00ddc2"/><path d="m256 264 10.847656-21.6875c-17.765625-3.082031-35.929687-3.082031-53.695312 0l10.847656 21.6875zm0 0" fill="#ff6243"/><path d="m224 264-10.847656-21.6875c-54.160156 9.488281-85.152344 47.800781-85.152344 93.6875h88zm0 0" fill="#00ddc2"/><path d="m224 264-8 72h48l-8-72zm0 0" fill="#ff7956"/><g fill="#ff6243"><path d="m0 232h88v16h-88zm0 0"/><path d="m232 0h16v88h-16zm0 0"/><path d="m392 232h88v16h-88zm0 0"/><path d="m232 392h16v88h-16zm0 0"/></g></svg>