<svg height="512pt" viewBox="0 0 512.00011 512" width="512pt" xmlns="http://www.w3.org/2000/svg"><path d="m423.722656 361.929688v132.414062c0 9.75-7.902344 17.65625-17.652344 17.65625h-388.414062c-9.75 0-17.65625-7.90625-17.65625-17.65625v-476.6875c0-9.75 7.90625-17.65625 17.65625-17.65625h388.414062c9.75 0 17.652344 7.90625 17.652344 17.65625zm0 0" fill="#285680"/><path d="m423.722656 361.929688v79.449218h-423.722656v-370.757812h423.722656zm0 0" fill="#b0d3f0"/><path d="m194.207031 114.757812v132.414063h-158.898437v-132.414063c0-4.875 3.953125-8.828124 8.828125-8.828124h141.242187c4.875 0 8.828125 3.953124 8.828125 8.828124zm0 0" fill="#4482c3"/><path d="m379.585938 344.277344c-3.546876-.015625-6.742188-2.152344-8.109376-5.425782-1.367187-3.273437-.640624-7.050781 1.84375-9.582031l8.71875-8.828125c3.449219-3.363281 8.957032-3.339844 12.378907.050782 3.421875 3.394531 3.492187 8.902343.15625 12.378906l-8.71875 8.828125c-1.664063 1.65625-3.921875 2.585937-6.269531 2.578125zm0 0" fill="#2c2f38"/><path d="m44.136719 35.308594c0 4.878906-3.949219 8.828125-8.828125 8.828125-4.875 0-8.824219-3.949219-8.824219-8.828125 0-4.875 3.949219-8.824219 8.824219-8.824219 4.878906 0 8.828125 3.949219 8.828125 8.824219zm0 0" fill="#e64c3c"/><path d="m79.449219 35.308594c0 4.878906-3.953125 8.828125-8.828125 8.828125s-8.828125-3.949219-8.828125-8.828125c0-4.875 3.953125-8.824219 8.828125-8.824219s8.828125 3.949219 8.828125 8.824219zm0 0" fill="#f0c419"/><path d="m114.757812 35.308594c0 4.878906-3.953124 8.828125-8.828124 8.828125s-8.828126-3.949219-8.828126-8.828125c0-4.875 3.953126-8.824219 8.828126-8.824219s8.828124 3.949219 8.828124 8.824219zm0 0" fill="#4fba6f"/><path d="m114.757812 141.242188 15.855469 20.683593 28.285157 6.292969-18.488282 19.078125 1.625 24.566406-27.277344-8.890625-27.277343 8.890625 1.625-24.566406-18.484375-19.078125 28.28125-6.292969zm0 0" fill="#f0c419"/><path d="m194.207031 247.171875v26.484375c0 4.875-3.953125 8.828125-8.828125 8.828125h-141.242187c-4.875 0-8.828125-3.953125-8.828125-8.828125v-26.484375zm0 0" fill="#285680"/><path d="m388.414062 114.757812v44.140626h-105.929687v-52.96875h97.101563c4.875 0 8.828124 3.953124 8.828124 8.828124zm0 0" fill="#4482c3"/><path d="m388.414062 158.898438v44.136718c0 4.875-3.953124 8.828125-8.828124 8.828125h-97.101563v-52.964843zm0 0" fill="#285680"/><path d="m282.484375 105.929688v105.933593h-44.140625c-4.875 0-8.828125-3.953125-8.828125-8.828125v-88.277344c0-4.875 3.953125-8.828124 8.828125-8.828124zm0 0" fill="#90bae1"/><path d="m379.585938 256h-150.070313c-4.875 0-8.824219-3.953125-8.824219-8.828125s3.949219-8.828125 8.824219-8.828125h150.070313c4.875 0 8.828124 3.953125 8.828124 8.828125s-3.953124 8.828125-8.828124 8.828125zm0 0" fill="#285680"/><path d="m353.101562 291.308594h-123.585937c-4.875 0-8.824219-3.949219-8.824219-8.824219s3.949219-8.828125 8.824219-8.828125h123.585937c4.878907 0 8.828126 3.953125 8.828126 8.828125s-3.949219 8.824219-8.828126 8.824219zm0 0" fill="#285680"/><path d="m52.964844 317.792969h132.414062c4.875 0 8.828125 3.953125 8.828125 8.828125v52.964844c0 4.875-3.953125 8.828124-8.828125 8.828124h-132.414062c-4.875 0-8.828125-3.953124-8.828125-8.828124v-52.964844c0-4.875 3.953125-8.828125 8.828125-8.828125zm0 0" fill="#ff5364"/><g fill="#285680"><path d="m344.277344 326.621094h-114.761719c-4.875 0-8.824219-3.953125-8.824219-8.828125s3.949219-8.828125 8.824219-8.828125h114.761719c4.875 0 8.824218 3.953125 8.824218 8.828125s-3.949218 8.828125-8.824218 8.828125zm0 0"/><path d="m344.277344 361.929688h-114.761719c-4.875 0-8.824219-3.949219-8.824219-8.828126 0-4.875 3.949219-8.824218 8.824219-8.824218h114.761719c4.875 0 8.824218 3.949218 8.824218 8.824218 0 4.878907-3.949218 8.828126-8.824218 8.828126zm0 0"/><path d="m388.414062 397.242188h-158.898437c-4.875 0-8.824219-3.953126-8.824219-8.828126s3.949219-8.828124 8.824219-8.828124h158.898437c4.875 0 8.828126 3.953124 8.828126 8.828124s-3.953126 8.828126-8.828126 8.828126zm0 0"/></g><path d="m506.589844 199.664062c7.011718 7.101563 7.234375 18.453126.511718 25.828126l-74.886718 81.789062c-11.269532 12.316406-27.195313 19.332031-43.890625 19.339844v-2.835938c.003906-15.125 5.671875-29.699218 15.890625-40.851562l75.777344-82.769532c3.398437-3.699218 8.164062-5.84375 13.191406-5.941406 5.023437-.09375 9.867187 1.871094 13.40625 5.441406zm0 0" fill="#5e5f62"/><path d="m479.929688 200.199219c3.398437-3.722657 8.175781-5.890625 13.214843-5.992188 5.039063-.101562 9.898438 1.871094 13.445313 5.457031 7.011718 7.101563 7.234375 18.453126.511718 25.828126l-13.074218 14.273437-26.164063-26.375zm0 0" fill="#2c2f38"/></svg>