<?xml version="1.0" encoding="iso-8859-1"?>
<!-- Generator: Adobe Illustrator 19.0.0, SVG Export Plug-In . SVG Version: 6.00 Build 0)  -->
<svg xmlns="http://www.w3.org/2000/svg" xmlns:xlink="http://www.w3.org/1999/xlink" version="1.1" id="Layer_1" x="0px" y="0px" viewBox="0 0 512 512" style="enable-background:new 0 0 512 512;" xml:space="preserve" width="512" height="512">
<g>
	<circle style="fill:#537983;" cx="256" cy="256" r="256"/>
	<path style="fill:#3E5959;" d="M512,256c0-14.739-1.263-29.182-3.655-43.24L403.808,108.223L108.234,403.797L212.788,508.35   C226.837,510.739,241.27,512,256,512C397.385,512,512,397.385,512,256z"/>
	<g>
		<polygon style="fill:#FF9100;" points="310.076,158.669 223.566,245.179 223.566,187.506 252.402,100.996   "/>
		<polygon style="fill:#FF9100;" points="223.566,245.179 151.474,317.271 93.801,259.598 180.311,230.761   "/>
		<path style="fill:#E0F4FF;" d="M311.517,101.285l99.198,99.198c-36.911,21.915-71.082,47.725-102.514,76.561l-40.804,11.967    l-1.297,30.423c-27.395,30.278-44.711,55.958-65.617,91.282c-1.587,2.74-3.605,5.335-5.768,7.498    c-20.186,20.186-58.251,13.841-86.51-14.418c-28.26-28.26-34.604-66.324-14.418-86.51c2.163-2.163,4.757-4.182,7.498-5.768    c32.153-19.176,55.235-34.185,83.496-58.697c12.976-11.246,25.664-22.781,37.487-35.18c2.163-2.163,4.325-4.614,6.344-6.921    C260.188,177.413,288.015,140.646,311.517,101.285z"/>
		<path style="fill:#BBDCFF;" d="M361.116,150.884l49.599,49.599c-36.911,21.915-71.082,47.725-102.514,76.561l-40.804,11.967    l-1.297,30.423c-27.395,30.278-44.711,55.958-65.617,91.282c-1.587,2.74-3.605,5.335-5.768,7.498    c-20.186,20.186-58.251,13.841-86.51-14.418L361.116,150.884z"/>
		<path style="fill:#BBDCFF;" d="M317.285,93.787c-2.163,2.163-4.182,4.757-5.768,7.498c-12.688,21.339-4.181,54.645,20.186,79.012    c24.367,24.367,57.673,32.874,79.012,20.186c2.74-1.587,5.335-3.605,7.498-5.768c20.186-20.186,13.841-58.251-14.418-86.51    C375.535,79.945,337.471,73.601,317.285,93.787z"/>
		<path style="fill:#9ABADB;" d="M403.795,108.205c28.259,28.259,34.604,66.324,14.418,86.51c-2.163,2.163-4.758,4.181-7.498,5.768    c-21.339,12.688-54.645,4.181-79.012-20.186L403.795,108.205z"/>
		<path style="fill:#FDBF00;" d="M252.835,259.165c17.446,14.851,40.803,17.446,55.366,17.879    c-14.707,13.554-28.692,27.54-42.101,42.39c-23.214-2.451-40.372-10.669-52.627-20.906c-31-26.098-32.441-66.468-33.162-67.766    l43.544-43.544c0.72,3.605,6.488,31.864,6.921,34.027C234.379,238.979,242.454,251.091,252.835,259.165z"/>
		<path style="fill:#FF9100;" d="M308.201,277.043c-14.707,13.554-28.692,27.54-42.101,42.39    c-23.214-2.451-40.372-10.669-52.627-20.906l39.363-39.363C270.281,274.016,293.639,276.61,308.201,277.043z"/>
	</g>
</g>















</svg>
