<svg height="410pt" viewBox="0 -25 410 410" width="410pt" xmlns="http://www.w3.org/2000/svg"><path d="m410 40v58.089844h-410v-58.089844c0-22.089844 17.910156-40 40-40h330c22.089844 0 40 17.910156 40 40zm0 0" fill="#f8ec7d"/><g fill="#e48e66"><path d="m180.710938 34.5c8.367187.027344 15.125 6.832031 15.097656 15.199219-.027344 8.367187-6.832032 15.128906-15.199219 15.101562-8.367187-.027343-15.125-6.832031-15.097656-15.199219.03125-8.367187 6.832031-15.125 15.199219-15.101562zm0 0"/><path d="m410 98.089844v221.988281c0 22.09375-17.910156 40-40 40h-330c-22.089844 0-40-17.90625-40-40v-221.988281zm0 0"/><path d="m112.648438 34.289062c8.367187.027344 15.128906 6.832032 15.101562 15.199219-.027344 8.367188-6.832031 15.128907-15.199219 15.101563-8.367187-.027344-15.128906-6.832032-15.101562-15.199219.011719-4.019531 1.621093-7.871094 4.46875-10.703125 2.851562-2.832031 6.714843-4.414062 10.730469-4.398438zm0 0"/><path d="m44.589844 34.070312c8.371094.023438 15.136718 6.828126 15.109375 15.199219-.023438 8.371094-6.828125 15.136719-15.199219 15.109375-8.371094-.023437-15.136719-6.828125-15.109375-15.199218.007813-4.019532 1.617187-7.871094 4.46875-10.707032 2.851563-2.832031 6.710937-4.417968 10.730469-4.402344zm0 0"/></g><path d="m152 220.039062c0-22.050781 18.277344-52.597656 52.601562-52.597656 13.8125 0 25.582032 5.757813 34.132813 12.890625l-11.816406-.300781h-.179688c-3.867187-.046875-7.039062 3.046875-7.089843 6.914062-.046876 3.863282 3.046874 7.039063 6.914062 7.085938l26.652344.671875c2.40625.652344 4.980468-.03125 6.75-1.792969 1.765625-1.757812 2.464844-4.324218 1.832031-6.738281l-.679687-26.699219c-.09375-3.796875-3.203126-6.824218-7-6.824218h-.179688c-3.867188.097656-6.917969 3.3125-6.820312 7.175781l.238281 9.402343c-11.964844-10.105468-27.09375-15.695312-42.753907-15.785156-39.839843 0-66.601562 34.4375-66.601562 66.597656 0 3.867188 3.132812 7 7 7s7-3.132812 7-7zm0 0" fill="#af593c"/><path d="m265 213.039062c-3.867188 0-7 3.136719-7 7 0 22.054688-18.277344 52.601563-52.601562 52.601563-13.8125 0-25.582032-5.757813-34.132813-12.890625l11.816406.300781c3.867188.097657 7.082031-2.957031 7.179688-6.824219.097656-3.867187-2.957031-7.078124-6.824219-7.175781l-26.65625-.675781c-2.40625-.648438-4.976562.035156-6.746094 1.796875-1.765625 1.757813-2.464844 4.324219-1.832031 6.734375l.679687 26.703125c.09375 3.796875 3.203126 6.824219 7 6.820313h.179688c3.867188-.097657 6.917969-3.308594 6.820312-7.175782l-.238281-9.398437c11.964844 10.105469 27.09375 15.691406 42.753907 15.785156 39.839843 0 66.601562-34.4375 66.601562-66.601563 0-3.863281-3.132812-7-7-7zm0 0" fill="#af593c"/></svg>