<svg height="480pt" viewBox="0 -8 480 480" width="480pt" xmlns="http://www.w3.org/2000/svg"><path d="m173.65625 98.34375-21.65625-21.65625v-36.6875h-16v36.6875l-21.65625 21.65625 11.3125 11.3125 10.34375-10.34375v12.6875h16v-12.6875l10.34375 10.34375zm0 0" fill="#c6c5ca"/><path d="m432 464h-184v-19.359375c.03125-21.636719 14.5-40.589844 35.359375-46.320313l41.761719-11.359374 34.878906 29.039062 34.878906-29.039062 41.761719 11.359374c20.859375 5.730469 35.328125 24.683594 35.359375 46.320313v19.359375zm0 0" fill="#00ccb3"/><path d="m192 464h-184v-19.359375c.03125-21.636719 14.5-40.589844 35.359375-46.320313l41.761719-11.359374 34.878906 29.039062 34.878906-29.039062 41.761719 11.359374c20.859375 5.730469 35.328125 24.683594 35.359375 46.320313v19.359375zm0 0" fill="#3d9ae2"/><path d="m168 304v16c.007812 17.136719-9.144531 32.972656-24 41.519531-14.832031 8.640625-33.167969 8.640625-48 0-3.636719-2.070312-6.972656-4.625-9.921875-7.597656-9.042969-8.964844-14.117187-21.1875-14.078125-33.921875v-16h8c20.140625-.011719 39.105469-9.492188 51.199219-25.601562l4.800781-6.398438 3.441406 13.839844c2.710938 10.652344 12.285156 18.121094 23.277344 18.160156zm0 0" fill="#ffdaaa"/><path d="m154.878906 386.960938-34.878906 29.039062-34.878906-29.039062 10.878906-2.960938v-22.480469c14.832031 8.640625 33.167969 8.640625 48 0v22.480469zm0 0" fill="#ffdaaa"/><path d="m394.878906 386.960938-34.878906 29.039062-34.878906-29.039062 10.878906-2.960938v-22.480469c14.832031 8.640625 33.167969 8.640625 48 0v22.480469zm0 0" fill="#ffdaaa"/><path d="m408 304v16c.007812 17.136719-9.144531 32.972656-24 41.519531-14.832031 8.640625-33.167969 8.640625-48 0-3.636719-2.070312-6.972656-4.625-9.921875-7.597656-9.042969-8.964844-14.117187-21.1875-14.078125-33.921875v-16h8c20.140625-.011719 39.105469-9.492188 51.199219-25.601562l4.800781-6.398438 3.441406 13.839844c2.710938 10.652344 12.285156 18.121094 23.277344 18.160156zm0 0" fill="#ffdaaa"/><path d="m176 280v24h-13.28125c-10.992188-.039062-20.566406-7.507812-23.277344-18.160156l-3.441406-13.839844-4.800781 6.398438c-12.09375 16.109374-31.058594 25.589843-51.199219 25.601562h-16v-24c0-30.929688 25.070312-56 56-56s56 25.070312 56 56zm0 0" fill="#57565c"/><path d="m416 280v24h-13.28125c-10.992188-.039062-20.566406-7.507812-23.277344-18.160156l-3.441406-13.839844-4.800781 6.398438c-12.09375 16.109374-31.058594 25.589843-51.199219 25.601562h-16v-24c0-30.929688 25.070312-56 56-56s56 25.070312 56 56zm0 0" fill="#57565c"/><path d="m256 176c0 8.835938-7.164062 16-16 16s-16-7.164062-16-16 7.164062-16 16-16 16 7.164062 16 16zm0 0" fill="#ff9811"/><path d="m344 40-48 18.480469-56 21.519531-56-21.519531-48-18.480469 104-40zm0 0" fill="#acabb1"/><path d="m296 58.480469v53.519531s-32 16-56 16-56-16-56-16v-53.519531l56 21.519531zm0 0" fill="#898890"/><path d="m144 361.519531v8c-14.832031 8.640625-33.167969 8.640625-48 0v-8c14.832031 8.640625 33.167969 8.640625 48 0zm0 0" fill="#f2ca96"/><path d="m384 361.519531v8c-14.832031 8.640625-33.167969 8.640625-48 0v-8c14.832031 8.640625 33.167969 8.640625 48 0zm0 0" fill="#f2ca96"/><path d="m40 440h16v24h-16zm0 0" fill="#1e81ce"/><path d="m184 440h16v24h-16zm0 0" fill="#1e81ce"/><path d="m280 440h16v24h-16zm0 0" fill="#00b39d"/><path d="m424 440h16v24h-16zm0 0" fill="#00b39d"/><path d="m368 200h-16v-16h-96v-16h104c4.417969 0 8 3.582031 8 8zm0 0" fill="#ee8700"/><path d="m128 200h-16v-24c0-4.417969 3.582031-8 8-8h104v16h-96zm0 0" fill="#ee8700"/><g fill="#ffa733"><path d="m472 288h-32v-16h24v-176h-56v-16h64c4.417969 0 8 3.582031 8 8v192c0 4.417969-3.582031 8-8 8zm0 0"/><path d="m376 80h16v16h-16zm0 0"/><path d="m344 80h16v16h-16zm0 0"/><path d="m432 224h16v16h-16zm0 0"/><path d="m432 192h16v16h-16zm0 0"/><path d="m432 160h16v16h-16zm0 0"/><path d="m40 288h-32c-4.417969 0-8-3.582031-8-8v-192c0-4.417969 3.582031-8 8-8h24v16h-16v176h24zm0 0"/><path d="m48 80h16v16h-16zm0 0"/><path d="m80 80h16v16h-16zm0 0"/><path d="m32 224h16v16h-16zm0 0"/><path d="m32 192h16v16h-16zm0 0"/><path d="m32 160h16v16h-16zm0 0"/></g><path d="m240 200c-13.253906 0-24-10.746094-24-24s10.746094-24 24-24 24 10.746094 24 24-10.746094 24-24 24zm0-32c-4.417969 0-8 3.582031-8 8s3.582031 8 8 8 8-3.582031 8-8-3.582031-8-8-8zm0 0" fill="#ed1c24"/></svg>