<svg height="459pt" viewBox="0 -1 459.098 459" width="459pt" xmlns="http://www.w3.org/2000/svg"><path d="m343.40625 182.597656v125.519532c.003906 11.050781-8.953125 20.003906-20 20h-187.71875c-11.046875.003906-20.003906-8.949219-20-20v-125.519532zm-124.679688 113.492188v-86.441406h-72.300781v86.441406zm0 0" fill="#e48e66"/><path d="m343.40625 148.117188v34.480468h-227.71875v-34.480468c-.003906-11.046876 8.953125-20 20-20h187.71875c11.046875 0 20.003906 8.953124 20 20zm-104.539062 7.613281c.011718-4.648438-3.742188-8.425781-8.390626-8.441407-4.648437-.015624-8.425781 3.742188-8.441406 8.390626-.011718 4.648437 3.746094 8.425781 8.390625 8.4375 4.644531.007812 8.421875-3.742188 8.441407-8.386719zm-37.800782-.121094c.015625-4.652344-3.738281-8.433594-8.390625-8.449219-4.648437-.019531-8.433593 3.738282-8.449219 8.390625-.015624 4.648438 3.742188 8.429688 8.390626 8.449219 4.652343.015625 8.433593-3.742188 8.449218-8.390625zm-37.808594-.121094c.011719-4.648437-3.742187-8.425781-8.390624-8.4375-4.648438-.015625-8.425782 3.742188-8.441407 8.386719-.011719 4.648438 3.742188 8.425781 8.390625 8.441406 2.234375.007813 4.378906-.871094 5.960938-2.445312 1.582031-1.574219 2.476562-3.710938 2.480468-5.945313zm0 0" fill="#f8ec7d"/><path d="m230.476562 147.277344c4.652344.011718 8.414063 3.792968 8.398438 8.445312-.011719 4.652344-3.792969 8.410156-8.445312 8.394532-4.652344-.011719-8.410157-3.796876-8.394532-8.449219.023438-4.644531 3.796875-8.394531 8.441406-8.390625zm0 0" fill="#e48e66"/><path d="m146.425781 209.648438h72.300781v86.441406h-72.300781zm0 0" fill="#af593c"/><path d="m192.675781 147.167969c4.648438.019531 8.402344 3.804687 8.382813 8.449219-.019532 4.648437-3.804688 8.402343-8.453125 8.382812-4.644531-.019531-8.398438-3.804688-8.378907-8.449219.019532-4.648437 3.804688-8.398437 8.449219-8.382812zm0 0" fill="#e48e66"/><path d="m154.867188 147.050781c4.648437.011719 8.402343 3.789063 8.390624 8.4375-.015624 4.648438-3.792968 8.40625-8.441406 8.390625-4.648437-.015625-8.402344-3.792968-8.390625-8.441406.003907-2.230469.898438-4.371094 2.480469-5.945312 1.582031-1.574219 3.726562-2.453126 5.960938-2.441407zm0 0" fill="#e48e66"/><path d="m228.078125 14.050781c37.398437 0 74.871094 10.53125 108.359375 30.460938 26.085938 15.546875 48.886719 36.035156 67.125 60.3125l-64.414062-2.132813c-3.847657-.101562-7.054688 2.921875-7.183594 6.765625-.128906 3.847657 2.875 7.074219 6.71875 7.226563l79.449218 2.632812h.230469c1.890625 0 3.695313-.761718 5.015625-2.113281 1.316406-1.351563 2.035156-3.175781 1.984375-5.0625l-2.617187-79.511719c-.066406-2.511718-1.472656-4.796875-3.683594-5.984375-2.214844-1.191406-4.894531-1.101562-7.027344.230469-2.128906 1.332031-3.378906 3.707031-3.28125 6.214844l1.917969 58c-18.652344-23.40625-41.375-43.257813-67.070313-58.597656-35.65625-21.226563-75.605468-32.4414068-115.523437-32.4414068-64.246094 0-123.472656 26.4882808-166.761719 74.5898438-19.335937 21.574219-34.710937 46.394531-45.417968 73.316406-10.398438 26.28125-15.898438 54-15.898438 80.160157 0 3.867187 3.132812 7 7 7s7-3.132813 7-7c0-50.078126 21.578125-103.953126 57.722656-144.109376 40.601563-45.113281 96.128906-69.957031 156.355469-69.957031zm0 0" fill="#6fe3ff"/><path d="m452.097656 221.117188c-3.867187 0-7 3.136718-7 7 0 50.082031-21.578125 103.957031-57.726562 144.113281-40.597656 45.113281-96.128906 69.957031-156.355469 69.957031-37.398437 0-74.871094-10.53125-108.359375-30.460938-26.085938-15.546874-48.886719-36.035156-67.125-60.316406l64.414062 2.136719c3.847657.101563 7.054688-2.921875 7.179688-6.765625.128906-3.847656-2.871094-7.074219-6.714844-7.226562l-79.449218-2.632813c-1.929688-.074219-3.800782.660156-5.164063 2.027344-1.367187 1.355469-2.117187 3.214843-2.066406 5.144531l2.617187 79.515625c.125 3.777344 3.222656 6.773437 7 6.769531h.234375c3.863281-.128906 6.894531-3.363281 6.765625-7.226562l-1.914062-58c18.648437 23.40625 41.371094 43.257812 67.070312 58.605468 35.652344 21.214844 75.597656 32.429688 115.515625 32.429688 64.246094 0 123.472657-26.488281 166.761719-74.589844 19.335938-21.578125 34.710938-46.394531 45.417969-73.316406 10.398437-26.28125 15.898437-54 15.898437-80.164062 0-3.863282-3.132812-7-7-7zm0 0" fill="#6fe3ff"/><g fill="#af593c"><path d="m311.425781 274.277344h-62.617187c-3.867188 0-7-3.132813-7-7 0-3.863282 3.132812-7 7-7h62.617187c3.867188 0 7 3.136718 7 7 0 3.867187-3.132812 7-7 7zm0 0"/><path d="m311.425781 303.089844h-62.617187c-3.867188 0-7-3.136719-7-7 0-3.867188 3.132812-7 7-7h62.617187c3.867188 0 7 3.132812 7 7 0 3.863281-3.132812 7-7 7zm0 0"/><path d="m311.425781 216.648438h-62.617187c-3.867188 0-7-3.132813-7-7 0-3.867188 3.132812-7 7-7h62.617187c3.867188 0 7 3.132812 7 7 0 3.867187-3.132812 7-7 7zm0 0"/><path d="m311.425781 245.46875h-62.617187c-3.867188 0-7-3.132812-7-7s3.132812-7 7-7h62.617187c3.867188 0 7 3.132812 7 7s-3.132812 7-7 7zm0 0"/></g></svg>