<?xml version="1.0"?>
<svg xmlns="http://www.w3.org/2000/svg" viewBox="0 0 64 64" width="512" height="512"><title>UI-UX-Design-phone-application</title><g id="Flat"><rect x="16" y="7" width="32" height="50" style="fill:#dfd9d3"/><rect x="16" y="15" width="32" height="34" style="fill:#56a8c6"/><rect x="33" y="10" width="2" height="2" style="fill:#b4b0aa"/><rect x="29" y="10" width="2" height="2" style="fill:#b4b0aa"/><rect x="31" y="52" width="2" height="2" style="fill:#b4b0aa"/><rect x="8" y="19" width="24" height="8" style="fill:#f7931e"/><rect x="39" y="37" width="18" height="16" style="fill:#f7931e"/><rect x="28" y="32" width="4" height="4" style="fill:#fbb03b"/><rect x="20" y="32" width="4" height="4" style="fill:#fbb03b"/><circle cx="40" cy="22" r="3" style="fill:#fbb03b"/><path d="M40,25h0a4,4,0,0,1,4,4v4a0,0,0,0,1,0,0H36a0,0,0,0,1,0,0V29A4,4,0,0,1,40,25Z" style="fill:#fbb03b"/><rect x="19" y="39" width="2" height="2" style="fill:#80c5d4"/><rect x="23" y="39" width="10" height="2" style="fill:#80c5d4"/><rect x="19" y="43" width="14" height="2" style="fill:#80c5d4"/><rect x="26" y="60" width="20" height="2" style="fill:#dfd9d3"/><rect x="11" y="31" width="2" height="16" style="fill:#dfd9d3"/><path d="M53,22H51V6a2,2,0,0,0-2-2H36V2H49a4,4,0,0,1,4,4Z" style="fill:#dfd9d3"/><rect x="51" y="24" width="2" height="2" style="fill:#dfd9d3"/><rect x="42" y="40" width="2" height="2" style="fill:#f15a24"/><rect x="46" y="40" width="8" height="2" style="fill:#f15a24"/><rect x="42" y="44" width="12" height="2" style="fill:#f15a24"/><rect x="42" y="48" width="12" height="2" style="fill:#f15a24"/><rect x="11" y="22" width="2" height="2" style="fill:#f15a24"/><rect x="15" y="22" width="2" height="2" style="fill:#f15a24"/><rect x="19" y="22" width="2" height="2" style="fill:#f15a24"/><rect x="23" y="22" width="2" height="2" style="fill:#f15a24"/><rect x="27" y="22" width="2" height="2" style="fill:#f15a24"/></g></svg>
