<?xml version="1.0" encoding="iso-8859-1"?>
<!-- Generator: Adobe Illustrator 16.0.0, SVG Export Plug-In . SVG Version: 6.00 Build 0)  -->
<!DOCTYPE svg PUBLIC "-//W3C//DTD SVG 1.1//EN" "http://www.w3.org/Graphics/SVG/1.1/DTD/svg11.dtd">
<svg version="1.1" id="Capa_1" xmlns="http://www.w3.org/2000/svg" xmlns:xlink="http://www.w3.org/1999/xlink" x="0px" y="0px"
	 width="114.433px" height="114.433px" viewBox="0 0 114.433 114.433" style="enable-background:new 0 0 114.433 114.433;"
	 xml:space="preserve">
<g>
	<path d="M84.844,16.827c0.189-5.882,5.111-10.498,10.994-10.309c5.883,0.19,10.498,5.112,10.31,10.994
		c-0.189,5.883-5.111,10.499-10.994,10.309C89.271,27.634,84.655,22.711,84.844,16.827z M114.342,56.319l-2.776-20.406
		c-0.729-5.347-5.66-9.086-11-8.363c-4.351,0.592-7.64,3.961-8.322,8.076c-0.142,0.196-0.277,0.39-0.426,0.599
		c-0.949,1.332-2.058,2.885-3.242,4.55c-0.594,0.832-1.207,1.692-1.83,2.566c-0.621,0.885-1.254,1.784-1.887,2.683
		c-4.992,7.153-9.984,14.307-9.984,14.307c-0.859,1.24-0.658,2.966,0.52,3.958c1.25,1.056,3.117,0.896,4.173-0.354
		c0,0,5.625-6.667,11.25-13.334c0.879-1.033,1.754-2.063,2.608-3.07l1.556,11.424c0.399,2.95,2.084,5.404,4.405,6.896l-1.362,10.054
		l-0.062,0.445c-0.059,0.436-0.039,0.89,0.066,1.344l6.41,27.369c0.438,1.854,2.237,3.104,4.155,2.816
		c2.021-0.306,3.412-2.19,3.107-4.211l-4.021-26.689l2.679-11.406C113.197,63.53,114.848,60.028,114.342,56.319z M66.268,61.841
		l0.228-0.267l-0.078-0.062c-0.068-0.061-0.078-0.165-0.018-0.234l0.508-0.604c0.061-0.071,0.166-0.08,0.235-0.021l0.072,0.063
		l6.254-7.413c0.033-0.036,0.068-0.074,0.101-0.109l-0.088-0.182c-0.041-0.083-0.007-0.183,0.075-0.223l0.15-0.074
		c0.082-0.039,0.182-0.006,0.225,0.077l0.039,0.084c0.191-0.117,0.4-0.199,0.617-0.245l0.58-0.689
		c0.062-0.072,0.166-0.081,0.236-0.021l2.01,1.697c0.07,0.058,0.08,0.163,0.021,0.233l-0.01,0.012
		c0.191,0.167,0.301,0.337,0.271,0.551l0.422,0.214l-3.269,5.303c-0.666,0.115-1.215-0.069-1.498-0.208l-3.53,4.187l-0.826-0.482
		l-0.557,0.659c-0.06,0.069-0.164,0.08-0.234,0.021l-1.57-1.324c-0.067-0.061-0.08-0.165-0.02-0.234l0.287-0.341L66.268,61.841z
		 M74.953,57.828c0.111,0.192,0.217,0.427,0.277,0.656c0.106-0.22,0.231-0.437,0.389-0.65L75.146,57.6L74.953,57.828z
		 M73.631,59.395c0.269,0.113,0.729,0.242,1.269,0.114c0.024-0.158,0.063-0.319,0.112-0.479c-0.016-0.028-0.02-0.064-0.008-0.099
		c0.082-0.229-0.057-0.59-0.225-0.896L73.631,59.395z M63.002,75.104c-4.787,1.804-7.205,7.146-5.402,11.932
		c1.806,4.787,7.146,7.205,11.935,5.401c4.785-1.804,7.205-7.146,5.399-11.932C73.131,75.718,67.787,73.3,63.002,75.104z
		 M53.391,90.483l3.893-9.307c0.047-0.112,0.092-0.234,0.127-0.354c0.186-0.599,0.217-1.207,0.123-1.787
		c0.127-0.98,0.094-2-0.146-3.021c-1.066-4.567-5.633-7.406-10.201-6.337l-18.604,4.348c-0.426,0.101-0.834,0.239-1.229,0.397
		c-1.842-0.167-3.645,0.888-4.342,2.699l-4.58,11.864L5.858,88.012c-1.385-0.109-2.664,0.828-2.949,2.223
		c-0.311,1.51,0.664,2.984,2.174,3.293l15.326,3.135c1.447,0.297,2.951-0.374,3.695-1.691l1.045,4.183l-22.098-2.1
		c-1.455-0.135-2.791,0.885-3.018,2.349c-0.234,1.521,0.809,2.944,2.328,3.18l27.047,4.171c0.355,0.053,0.74,0.056,1.113-0.008
		c1.91-0.319,3.197-2.127,2.877-4.036l-0.039-0.243l-1.968-11.729c0.352-0.037,0.703-0.091,1.055-0.173l14.807-3.46l-0.863,2.791
		l-0.102,0.319c-0.32,1.047-0.068,2.231,0.76,3.062l10.76,10.797c0.921,0.918,2.412,1.021,3.445,0.183
		c1.104-0.896,1.271-2.517,0.377-3.621L53.391,90.483z"/>
</g>
<g>
</g>
<g>
</g>
<g>
</g>
<g>
</g>
<g>
</g>
<g>
</g>
<g>
</g>
<g>
</g>
<g>
</g>
<g>
</g>
<g>
</g>
<g>
</g>
<g>
</g>
<g>
</g>
<g>
</g>
</svg>
